# xmcd CD database file
#
# Track frame offsets:
#	150
#	18300
#	34280
#	50802
#	68847
#	86090
#	102212
#	120357
#	137390
#	152187
#	168717
#	183890
#	202340
#	220662
#	238418
#	253673
#	271922
#	285820
#	300227
#	315503
#
# Disc length: 4421 seconds
#
# Revision: 0
# Processed by: cddbd v1.5.2PL0 Copyright (c) Steve Scherf et al.
# Submitted via: CDex 1.70beta2
#
DISCID=18114314
DTITLE=ChartBreakers - ChartBreakers CGC-510
DYEAR=0000
DGENRE=Country
TTITLE0=Alabama - Lady Down On Love
TTITLE1=Charlene Carter - I Fell In Love
TTITLE2=Billy Dean - Only The Wind
TTITLE3=Judds - One Man Woman
TTITLE4=McBride and The Ride - Just One Night
TTITLE5=Paul Overstreet - Daddy's Come Around
TTITLE6=Restless Heart - Dancy's Dream
TTITLE7=Dan Seals - Bop
TTITLE8=Pam Tillis - Maybe It Was Memphis
TTITLE9=Steve Wariner - Tips Of My Fingers
TTITLE10=McBride and The Ride - Sacred Ground
TTITLE11=Nitty Gritty Dirt Band - Partners, Brothers And Friends
TTITLE12=K T Oslin - Hold Me
TTITLE13=Marie Osmond and Dan Seals - Meet Me In Montana
TTITLE14=Paul Overstreet - Love Helps Those
TTITLE15=Pirates Of The Mississippi - Feed Jake
TTITLE16=Mike Reid - As Simple As That
TTITLE17=Dan Seals - One Friend
TTITLE18=Ricky Van Shelton - Crime Of Passion
TTITLE19=Shenandoah - Ghost In This House
EXTD=YEAR: 0000
EXTT0=
EXTT1=
EXTT2=
EXTT3=
EXTT4=
EXTT5=
EXTT6=
EXTT7=
EXTT8=
EXTT9=
EXTT10=
EXTT11=
EXTT12=
EXTT13=
EXTT14=
EXTT15=
EXTT16=
EXTT17=
EXTT18=
EXTT19=
PLAYORDER=
